<?xml version="1.0" encoding="UTF-8" standalone="no"?>
<!DOCTYPE svg PUBLIC "-//W3C//DTD SVG 1.1//EN" "http://www.w3.org/Graphics/SVG/1.1/DTD/svg11.dtd">
<svg width="100%" height="100%" viewBox="0 0 48 48" version="1.1" xmlns="http://www.w3.org/2000/svg" xmlns:xlink="http://www.w3.org/1999/xlink" xml:space="preserve" xmlns:serif="http://www.serif.com/" style="fill-rule:evenodd;clip-rule:evenodd;stroke-linecap:round;stroke-linejoin:round;">
    <g>
        <path d="M43,0L5,0C2.239,0 0,2.239 0,5L0,43C0,45.761 2.239,48 5,48L43,48C45.761,48 48,45.761 48,43L48,5C48,2.239 45.761,0 43,0Z" style="fill:rgb(229,229,229);fill-rule:nonzero;"/>
        <path d="M24,38.92C32.28,38.92 39,32.22 39,23.96C39,15.7 32.28,9 24,9C15.72,9 9,15.7 9,23.96C9,32.22 15.72,38.92 24,38.92Z" style="fill:rgb(41,47,62);fill-rule:nonzero;"/>
        <g transform="matrix(1,0,0,1,-0.48934,0.44783)">
            <g transform="matrix(2.03207,0,0,1,-16.8333,-3.01483)">
                <path d="M23.931,21.07L24,29.73C24,30.93 23.03,31.9 21.82,31.9L18.73,31.9C17.53,31.9 16.55,30.93 16.55,29.73L16.55,20.43C16.55,19.73 19.82,21.526 20.4,21.926L21.614,20.679L23.931,21.07Z" style="fill:rgb(234,234,234);fill-rule:nonzero;"/>
            </g>
            <g transform="matrix(0.741239,0,0,0.741239,15.4938,15.3435)">
                <g>
                    <path d="M2,3L8,3C10.194,3 12,4.806 12,7L12,21C12,19.354 10.646,18 9,18L2,18L2,3Z" style="fill:none;fill-rule:nonzero;stroke:black;stroke-width:2px;"/>
                    <path d="M22,3L16,3C13.806,3 12,4.806 12,7L12,21C12,19.354 13.354,18 15,18L22,18L22,3Z" style="fill:none;fill-rule:nonzero;stroke:black;stroke-width:2px;"/>
                </g>
            </g>
        </g>
    </g>
</svg>
