<svg width="123" height="40" viewBox="0 0 123 40" fill="none" xmlns="http://www.w3.org/2000/svg">
<g clip-path="url(#clip0_48_63)">
<path d="M16.1873 0.00354004H15.0972C12.0119 0.188597 8.98842 1.19613 6.49967 3.02614C3.90807 4.87671 1.89239 7.5292 0.843407 10.5312C-0.308413 13.8211 -0.287845 17.5223 0.946248 20.7916C2.26261 24.3488 4.93648 27.3714 8.2891 29.1603C11.0864 30.6819 14.3362 31.2782 17.4831 30.9698C20.7329 30.7025 23.9209 29.3454 26.2246 27.0424C29.68 23.7937 30.7496 18.6737 30.0091 14.1296H15.632V18.3653C17.908 18.379 20.184 18.3745 22.4601 18.3699H22.4606C23.5987 18.3676 24.7368 18.3653 25.8749 18.3653C25.6281 20.4626 24.8671 22.6216 23.2216 24.0404C21.1237 26.0555 18.1207 26.9396 15.2412 26.7751C12.1559 26.6723 9.17354 25.1919 7.21955 22.8273C5.1833 20.4009 4.29887 17.111 4.7308 13.9856C5.1216 10.8191 6.9316 7.85819 9.60547 6.11043C12.0531 4.44491 15.2 3.88974 18.1207 4.5066C20.0953 4.87671 21.9053 5.92537 23.4067 7.28245C23.9589 6.70702 24.5244 6.14501 25.0918 5.58108L25.092 5.5809C25.5181 5.1575 25.9452 4.73302 26.3686 4.30098C23.6947 1.60737 19.9718 0.0857876 16.1873 0.00354004Z" fill="#8091A5"/>
<path d="M101.977 1.07276H97.5757C97.5757 4.33601 97.578 7.59926 97.5803 10.8617V10.8709C97.5849 17.3905 97.5895 23.9071 97.5757 30.4146C98.6716 30.4454 99.779 30.4416 100.881 30.4377H100.881C101.247 30.4364 101.613 30.4352 101.977 30.4352V1.07276Z" fill="#8091A5"/>
<path fill-rule="evenodd" clip-rule="evenodd" d="M39.7996 11.2509C42.5146 10.7369 45.4559 11.3126 47.6978 12.937C49.7341 14.3763 51.1533 16.6381 51.5852 19.1055C52.1406 21.9637 51.4412 25.0891 49.5901 27.3509C47.595 29.88 44.3246 31.2371 41.1366 31.0315C38.2159 30.867 35.3775 29.4071 33.6497 27.0219C31.6957 24.39 31.2227 20.7711 32.2922 17.6868C33.3618 14.3763 36.3853 11.8472 39.7996 11.2509ZM40.4167 15.1577C39.306 15.4455 38.2776 16.083 37.5371 16.9877C35.542 19.3729 35.6654 23.2591 37.8662 25.4797C39.1209 26.7546 41.0131 27.3509 42.7614 27.0013C44.3863 26.7135 45.8055 25.6237 46.5871 24.1843C47.9446 21.7375 47.5538 18.3653 45.4764 16.4531C44.1395 15.2194 42.1855 14.7053 40.4167 15.1577Z" fill="#8091A5"/>
<path fill-rule="evenodd" clip-rule="evenodd" d="M70.4257 13.6978C68.1015 11.5182 64.7077 10.6546 61.6019 11.2509C58.2493 11.8266 55.2875 14.2735 54.1562 17.4812C53.025 20.6271 53.4569 24.3283 55.452 27.0219C57.2209 29.4687 60.1622 30.9492 63.1446 31.0315C66.2709 31.1754 69.4384 29.8183 71.3924 27.3509C74.6216 23.4441 74.2102 17.0905 70.4257 13.6978ZM59.3394 16.9671C60.0799 16.0829 61.1083 15.4455 62.219 15.1577C63.9673 14.7053 65.9213 15.1988 67.2582 16.4325C69.3561 18.3448 69.7469 21.7169 68.41 24.1843C67.6284 25.6237 66.1886 26.6929 64.5843 27.0013C62.7743 27.3714 60.8203 26.7135 59.5657 25.3769C57.4472 23.1357 57.3649 19.3112 59.3394 16.9671Z" fill="#8091A5"/>
<path fill-rule="evenodd" clip-rule="evenodd" d="M80.0928 12.4435C82.4581 10.963 85.6051 10.5518 88.1555 11.8266C88.9577 12.1762 89.6159 12.7725 90.2535 13.3688C90.2638 13.0912 90.2638 12.8085 90.2638 12.5232C90.2638 12.2379 90.2638 11.95 90.274 11.6621C90.963 11.6724 91.652 11.6724 92.3436 11.6724H92.3437C93.0353 11.6724 93.7295 11.6724 94.4288 11.6827V29.8183C94.4082 32.553 93.7089 35.4523 91.7344 37.4468C89.5747 39.6469 86.2632 40.3254 83.2808 39.8731C80.0928 39.4001 77.3161 37.0766 76.082 34.1363C76.8484 33.766 77.6387 33.4432 78.433 33.1188L78.4332 33.1187C78.9178 32.9208 79.4039 32.7223 79.8871 32.5119C80.607 34.198 82.0673 35.6373 83.8979 35.9663C85.7285 36.2953 87.847 35.8429 89.0399 34.3214C90.3152 32.7587 90.3152 30.6202 90.2535 28.708C89.3073 29.6332 88.2172 30.4557 86.9008 30.7641C84.0419 31.5661 80.8949 30.5791 78.6941 28.6463C76.4728 26.7135 75.1564 23.732 75.2798 20.7711C75.3415 17.4195 77.2338 14.1913 80.0928 12.4435ZM84.3504 15.0754C83.0957 15.281 81.9233 15.9801 81.1212 16.9466C79.1878 19.2495 79.1878 22.9301 81.1417 25.1919C82.2524 26.5284 84.0419 27.2686 85.7696 27.0836C87.3945 26.9191 88.896 25.891 89.6981 24.4722C91.0556 22.0665 90.8294 18.7971 88.9988 16.6998C87.8676 15.4044 86.0576 14.767 84.3504 15.0754Z" fill="#8091A5"/>
<path fill-rule="evenodd" clip-rule="evenodd" d="M116.704 11.621C113.537 10.4079 109.732 11.1892 107.263 13.4921C103.417 17.0494 103.088 23.6703 106.502 27.6182C108.58 30.1267 111.994 31.3604 115.203 30.9698C118.103 30.7025 120.797 29.0164 122.402 26.6106C121.836 26.2302 121.27 25.855 120.705 25.4797C120.139 25.1045 119.573 24.7292 119.008 24.3488C118.555 24.9246 118.082 25.5209 117.486 25.9732C115.984 27.1658 113.845 27.392 112.056 26.7546C110.781 26.3228 109.834 25.2536 109.217 24.0815C111.449 23.1562 113.676 22.236 115.902 21.3158C118.129 20.3957 120.355 19.4756 122.587 18.5504C121.62 15.61 119.707 12.7519 116.704 11.621ZM108.497 20.7505C108.477 19.5373 108.765 18.3036 109.464 17.2961C110.554 15.6923 112.591 14.6436 114.545 14.9932C115.758 15.1782 116.951 15.8773 117.445 17.0288C114.462 18.2831 111.48 19.5168 108.497 20.7505Z" fill="#8091A5"/>
</g>
<defs>
<clipPath id="clip0_48_63">
<rect width="122.587" height="40" fill="white"/>
</clipPath>
</defs>
</svg>
