<?xml version="1.0" encoding="UTF-8" standalone="no"?>
<!DOCTYPE svg PUBLIC "-//W3C//DTD SVG 1.1//EN" "http://www.w3.org/Graphics/SVG/1.1/DTD/svg11.dtd">
<svg width="100%" height="100%" viewBox="0 0 516 516" version="1.1" xmlns="http://www.w3.org/2000/svg" xmlns:xlink="http://www.w3.org/1999/xlink" xml:space="preserve" xmlns:serif="http://www.serif.com/" style="fill-rule:evenodd;clip-rule:evenodd;stroke-linejoin:round;stroke-miterlimit:2;">
    <g transform="matrix(1,0,0,7.55846,-204.54,-830.079)">
        <g transform="matrix(1,0,0,0.132302,-8378.02,-99.1986)">
            <g transform="matrix(1,0,0,1,8478.3,1528.34)">
                <circle cx="368.95" cy="309.256" r="68.281" style="fill:rgb(41,47,62);"/>
            </g>
            <g transform="matrix(1,0,0,1,8501.81,1498.9)">
                <circle cx="345.438" cy="338.696" r="190.25" style="fill:url(#_Radial1);"/>
            </g>
            <g transform="matrix(1.35469,0,0,1.35469,8372.33,1378.77)">
                <circle cx="345.438" cy="338.696" r="190.25" style="fill:url(#_Radial2);"/>
            </g>
            <g transform="matrix(1,0,0,1,8315.18,1578.63)">
                <circle cx="501.702" cy="71.203" r="5.008" style="fill:rgb(41,47,62);"/>
            </g>
            <g transform="matrix(1,0,0,1,8519.2,1688.89)">
                <circle cx="501.702" cy="71.203" r="5.008" style="fill:rgb(41,47,62);"/>
            </g>
            <g transform="matrix(1,0,0,1,8471.01,1905.96)">
                <circle cx="501.702" cy="71.203" r="5.008" style="fill:rgb(41,47,62);"/>
            </g>
            <g transform="matrix(1,0,0,1,8261.46,1935.32)">
                <circle cx="501.702" cy="71.203" r="5.008" style="fill:rgb(41,47,62);"/>
            </g>
            <g transform="matrix(1,0,0,1,8158.74,1734.07)">
                <circle cx="501.702" cy="71.203" r="5.008" style="fill:rgb(41,47,62);"/>
            </g>
            <g transform="matrix(1,0,0,1,8202.86,1543.4)">
                <circle cx="501.702" cy="71.203" r="5.008" style="fill:rgb(41,47,62);"/>
            </g>
            <g transform="matrix(1,0,0,1,8518.4,1582.7)">
                <circle cx="501.702" cy="71.203" r="5.008" style="fill:rgb(41,47,62);"/>
            </g>
            <g transform="matrix(1,0,0,1,8578.92,1866.48)">
                <circle cx="501.702" cy="71.203" r="5.008" style="fill:rgb(41,47,62);"/>
            </g>
            <g transform="matrix(1,0,0,1,8374.97,2017.02)">
                <circle cx="501.702" cy="71.203" r="5.008" style="fill:rgb(41,47,62);"/>
            </g>
            <g transform="matrix(1,0,0,1,8089.94,1837.22)">
                <circle cx="501.702" cy="71.203" r="5.008" style="fill:rgb(41,47,62);"/>
            </g>
        </g>
        <g transform="matrix(1.53507,0,0,0.203093,413.148,137.42)">
            <path d="M16,25.6C18.133,17.067 23.467,12.8 32,12.8C44.8,12.8 46.4,22.4 52.8,24C57.067,25.067 60.8,23.467 64,19.2C61.867,27.733 56.533,32 48,32C35.2,32 33.6,22.4 27.2,20.8C22.933,19.733 19.2,21.333 16,25.6ZM0,44.8C2.133,36.267 7.467,32 16,32C28.8,32 30.4,41.6 36.8,43.2C41.067,44.267 44.8,42.667 48,38.4C45.867,46.933 40.533,51.2 32,51.2C19.2,51.2 17.6,41.6 11.2,40C6.933,38.933 3.2,40.533 0,44.8Z" style="fill:white;"/>
        </g>
    </g>
    <defs>
        <radialGradient id="_Radial1" cx="0" cy="0" r="1" gradientUnits="userSpaceOnUse" gradientTransform="matrix(-125.017,-228.193,228.193,-125.017,345.438,328.881)"><stop offset="0" style="stop-color:white;stop-opacity:0.05"/><stop offset="0.6" style="stop-color:rgb(218,219,221);stop-opacity:0.22"/><stop offset="0.81" style="stop-color:rgb(131,135,143);stop-opacity:0.6"/><stop offset="1" style="stop-color:rgb(41,47,62);stop-opacity:1"/></radialGradient>
        <radialGradient id="_Radial2" cx="0" cy="0" r="1" gradientUnits="userSpaceOnUse" gradientTransform="matrix(-125.017,-228.193,228.193,-125.017,345.438,328.881)"><stop offset="0" style="stop-color:white;stop-opacity:0.02"/><stop offset="0.6" style="stop-color:rgb(218,219,221);stop-opacity:0.1"/><stop offset="0.81" style="stop-color:rgb(131,135,143);stop-opacity:0.27"/><stop offset="1" style="stop-color:rgb(41,47,62);stop-opacity:0.46"/></radialGradient>
    </defs>
</svg>
