<?xml version="1.0" encoding="UTF-8" standalone="no"?>
<!DOCTYPE svg PUBLIC "-//W3C//DTD SVG 1.1//EN" "http://www.w3.org/Graphics/SVG/1.1/DTD/svg11.dtd">
<svg width="100%" height="100%" viewBox="0 0 166 83" version="1.1" xmlns="http://www.w3.org/2000/svg" xmlns:xlink="http://www.w3.org/1999/xlink" xml:space="preserve" xmlns:serif="http://www.serif.com/" style="fill-rule:evenodd;clip-rule:evenodd;stroke-linecap:round;stroke-linejoin:round;stroke-miterlimit:1.5;">
    <g transform="matrix(0.996315,0.0857688,-0.64828,7.53061,-613.397,-301.982)">
        <g transform="matrix(1.40327,-0.0239084,0.127723,0.131218,-18745.8,308.437)">
            <path d="M13800.4,469.528C13798.8,469.528 13797.3,469.104 13796,468.256C13794.6,467.408 13793.5,466.248 13792.6,464.776C13791.6,463.304 13791,461.656 13790.6,459.832L13793.5,458.152C13794.1,460.456 13795,462.224 13796.2,463.456C13797.4,464.688 13798.8,465.304 13800.4,465.304C13801.4,465.304 13802.3,465.08 13803.1,464.632C13803.8,464.184 13804.4,463.552 13804.8,462.736C13805.2,461.92 13805.4,460.968 13805.4,459.88C13805.4,458.376 13805.1,457.184 13804.5,456.304C13803.9,455.424 13803.1,454.76 13801.9,454.312L13797.3,452.296C13795.4,451.496 13794,450.232 13793,448.504C13792.1,446.776 13791.6,444.792 13791.6,442.552C13791.6,440.6 13791.9,438.88 13792.6,437.392C13793.3,435.904 13794.2,434.736 13795.4,433.888C13796.6,433.04 13797.9,432.616 13799.4,432.616C13800.9,432.616 13802.3,433 13803.5,433.768C13804.8,434.536 13805.8,435.568 13806.7,436.864C13807.5,438.16 13808.2,439.64 13808.6,441.304L13805.7,442.984C13805.2,440.968 13804.4,439.44 13803.3,438.4C13802.2,437.36 13800.9,436.84 13799.5,436.84C13798.6,436.84 13797.8,437.056 13797.1,437.488C13796.4,437.92 13795.8,438.544 13795.5,439.36C13795.1,440.176 13794.9,441.144 13794.9,442.264C13794.9,443.576 13795.2,444.744 13795.8,445.768C13796.4,446.792 13797.3,447.576 13798.5,448.12L13802.7,449.896C13804.7,450.76 13806.2,451.992 13807.2,453.592C13808.2,455.192 13808.8,457.176 13808.8,459.544C13808.8,461.496 13808.4,463.224 13807.7,464.728C13807,466.232 13806,467.408 13804.7,468.256C13803.5,469.104 13802,469.528 13800.4,469.528Z" style="fill-rule:nonzero;"/>
            <path d="M13811.1,468.952L13820.2,433.192L13824.1,433.192L13833.1,468.952L13829.6,468.952L13827.5,460.552L13816.7,460.552L13814.7,468.952L13811.1,468.952ZM13817.8,456.232L13826.5,456.232L13821.6,436.6L13822.6,436.6L13817.8,456.232Z" style="fill-rule:nonzero;"/>
            <path d="M13833.9,468.952L13843,433.192L13846.9,433.192L13855.9,468.952L13852.4,468.952L13850.3,460.552L13839.5,460.552L13837.5,468.952L13833.9,468.952ZM13840.6,456.232L13849.3,456.232L13844.4,436.6L13845.4,436.6L13840.6,456.232Z" style="fill-rule:nonzero;"/>
            <path d="M13867.5,469.528C13865.9,469.528 13864.4,469.104 13863.1,468.256C13861.7,467.408 13860.6,466.248 13859.7,464.776C13858.8,463.304 13858.1,461.656 13857.7,459.832L13860.6,458.152C13861.2,460.456 13862.1,462.224 13863.3,463.456C13864.5,464.688 13865.9,465.304 13867.5,465.304C13868.5,465.304 13869.4,465.08 13870.2,464.632C13870.9,464.184 13871.5,463.552 13871.9,462.736C13872.3,461.92 13872.5,460.968 13872.5,459.88C13872.5,458.376 13872.2,457.184 13871.6,456.304C13871,455.424 13870.2,454.76 13869,454.312L13864.4,452.296C13862.5,451.496 13861.1,450.232 13860.2,448.504C13859.2,446.776 13858.7,444.792 13858.7,442.552C13858.7,440.6 13859,438.88 13859.7,437.392C13860.4,435.904 13861.3,434.736 13862.5,433.888C13863.7,433.04 13865,432.616 13866.5,432.616C13868,432.616 13869.4,433 13870.7,433.768C13871.9,434.536 13872.9,435.568 13873.8,436.864C13874.6,438.16 13875.3,439.64 13875.7,441.304L13872.8,442.984C13872.3,440.968 13871.5,439.44 13870.4,438.4C13869.3,437.36 13868,436.84 13866.6,436.84C13865.7,436.84 13864.9,437.056 13864.2,437.488C13863.5,437.92 13863,438.544 13862.6,439.36C13862.2,440.176 13862,441.144 13862,442.264C13862,443.576 13862.3,444.744 13862.9,445.768C13863.5,446.792 13864.4,447.576 13865.6,448.12L13869.8,449.896C13871.8,450.76 13873.3,451.992 13874.3,453.592C13875.4,455.192 13875.9,457.176 13875.9,459.544C13875.9,461.496 13875.5,463.224 13874.8,464.728C13874.1,466.232 13873.1,467.408 13871.8,468.256C13870.6,469.104 13869.1,469.528 13867.5,469.528Z" style="fill-rule:nonzero;"/>
        </g>
        <g transform="matrix(0.993542,-0.0150113,0.857602,0.993542,-51.9344,-2.50522)">
            <g transform="matrix(1,0,0,0.132302,-13002.9,-5.87015)">
                <rect x="13662.7" y="398.604" width="151.942" height="67.326" style="fill:none;stroke:black;stroke-width:1px;"/>
            </g>
            <g transform="matrix(1,0,0,0.132302,-13004.8,-5.50733)">
                <rect x="13659.4" y="390.595" width="10.532" height="10.532" style="fill:white;stroke:black;stroke-width:1px;"/>
            </g>
            <g transform="matrix(1,0,0,0.132302,-13004.4,3.29451)">
                <rect x="13659.4" y="390.595" width="10.532" height="10.532" style="fill:white;stroke:black;stroke-width:1px;"/>
            </g>
            <g transform="matrix(1,0,0,0.132302,-12852.8,-5.54583)">
                <rect x="13659.4" y="390.595" width="10.532" height="10.532" style="fill:white;stroke:black;stroke-width:1px;"/>
            </g>
            <g transform="matrix(1,0,0,0.132302,-12852.9,3.36408)">
                <rect x="13659.4" y="390.595" width="10.532" height="10.532" style="fill:white;stroke:black;stroke-width:1px;"/>
            </g>
        </g>
    </g>
</svg>
