<?xml version="1.0" encoding="UTF-8" standalone="no"?>
<!DOCTYPE svg PUBLIC "-//W3C//DTD SVG 1.1//EN" "http://www.w3.org/Graphics/SVG/1.1/DTD/svg11.dtd">
<svg width="100%" height="100%" viewBox="0 0 86 84" version="1.1" xmlns="http://www.w3.org/2000/svg" xmlns:xlink="http://www.w3.org/1999/xlink" xml:space="preserve" xmlns:serif="http://www.serif.com/" style="fill-rule:evenodd;clip-rule:evenodd;stroke-linecap:round;stroke-linejoin:round;stroke-miterlimit:1.5;">
    <g transform="matrix(1,0,0,7.55846,-492.097,-178.034)">
        <g>
            <g transform="matrix(0.840535,0,0,0.132302,-10848.6,-5.87015)">
                <path d="M13592.9,238.135C13592.9,229.729 13584.8,222.903 13574.8,222.903L13511,222.903C13501,222.903 13492.8,229.729 13492.8,238.135L13492.8,290.423C13492.8,298.83 13501,305.655 13511,305.655L13574.8,305.655C13584.8,305.655 13592.9,298.83 13592.9,290.423L13592.9,238.135Z" style="fill:rgb(41,47,62);stroke:rgb(133,133,133);stroke-width:1.08px;"/>
            </g>
            <g transform="matrix(2.21867,0,0,0.293534,508.042,25.5722)">
                <path d="M13,2L3,14L12,14L11,22L21,10L12,10L13,2Z" style="fill:none;fill-rule:nonzero;stroke:white;stroke-width:2px;stroke-miterlimit:4;"/>
            </g>
        </g>
    </g>
</svg>
