<svg width="149" height="40" viewBox="0 0 149 40" fill="none" xmlns="http://www.w3.org/2000/svg">
<g clip-path="url(#clip0_48_61)">
<path d="M54.3855 29.9334H57.7803L57.2179 27.3014V11.6104H53.9705V18.7671C52.9937 17.6359 51.6502 16.9723 50.0637 16.9723C46.8158 16.9723 44.3014 19.6525 44.3014 23.5881C44.3014 27.5232 46.8158 30.2039 50.0637 30.2039C51.6753 30.2039 53.0666 29.5151 54.044 28.3341L54.3855 29.9329V29.9334ZM118.579 20.4896C119.238 20.4896 119.848 20.661 120.41 21.0542L121.948 17.5872C121.24 17.1437 120.41 16.9477 119.604 16.9477C118.139 16.9477 116.918 17.6098 116.138 18.8416L115.795 17.2412H112.45L112.987 19.7254V29.9313H116.233V21.841C116.672 21.0044 117.503 20.4886 118.577 20.4886V20.4896H118.579ZM128.101 26.7851C126.222 26.7851 124.829 25.5312 124.829 23.5876C124.829 21.6203 126.222 20.3911 128.101 20.3911C130.006 20.3911 131.374 21.6203 131.374 23.5876C131.374 25.5312 130.006 26.7851 128.101 26.7851H128.101ZM47.4506 23.5876C47.4506 21.6203 48.8424 20.3911 50.7221 20.3911C52.6275 20.3911 53.9947 21.6203 53.9947 23.5876C53.9947 25.5312 52.6275 26.7851 50.7232 26.7851C48.8435 26.7851 47.4506 25.5312 47.4506 23.5876ZM142.483 26.7851C140.604 26.7851 139.212 25.5312 139.212 23.5876C139.212 21.6203 140.604 20.3911 142.483 20.3911C144.388 20.3911 145.755 21.6203 145.755 23.5876C145.755 25.5312 144.388 26.7851 142.483 26.7851ZM65.6663 20.194C67.3508 20.194 68.4499 20.9808 68.7914 22.4317H62.5411C62.9073 20.9808 64.0059 20.194 65.6658 20.194H65.6663ZM104.513 20.194C106.199 20.194 107.298 20.9808 107.64 22.4317H101.389C101.755 20.9808 102.854 20.194 104.514 20.194H104.513ZM88.6679 29.9334H93.8931L97.2879 17.2428H93.7472L91.2574 27.5232L88.7666 17.2428H85.2742L88.669 29.9329L88.6679 29.9334ZM80.2925 29.9334H83.5383V17.2423H80.2925V29.9334ZM66.1639 30.1685C67.9717 30.1685 69.7538 29.6757 71.2432 28.717L69.9983 25.9136C68.8258 26.5285 67.5321 26.8975 66.2132 26.8975C64.5045 26.8975 63.3079 26.2334 62.7948 25.0036H71.9263C72.0239 24.5366 72.0737 24.0695 72.0737 23.5034C72.0737 19.5683 69.3635 16.9369 65.7248 16.9369C62.063 16.9369 59.377 19.593 59.377 23.5527C59.377 27.5858 62.0383 30.1685 66.1649 30.1685H66.1639ZM148.905 23.5876C148.905 19.6525 146.17 16.9718 142.483 16.9718C138.796 16.9718 136.062 19.6525 136.062 23.5876C136.062 27.5232 138.796 30.2034 142.483 30.2034C146.17 30.2034 148.905 27.5232 148.905 23.5876H148.905ZM104.954 30.2034C106.76 30.2034 108.542 29.7117 110.033 28.7524L108.787 25.9475C107.615 26.5624 106.321 26.9309 105.002 26.9309C103.293 26.9309 102.097 26.2678 101.583 25.037H110.716C110.813 24.5699 110.862 24.1029 110.862 23.5373C110.862 19.6022 108.151 16.9708 104.513 16.9708C100.851 16.9708 98.1651 19.6263 98.1651 23.5865C98.1651 27.6197 100.827 30.2023 104.954 30.2023V30.2034H104.954ZM128.101 30.2034C131.789 30.2034 134.522 27.5232 134.522 23.5876C134.522 19.6525 131.788 16.9718 128.101 16.9718C124.413 16.9718 121.679 19.6525 121.679 23.5876C121.679 27.5232 124.414 30.2034 128.1 30.2034H128.101ZM74.1393 29.9329H77.3861V11.6099H74.1388V29.9329H74.1393ZM81.9277 15.4952C83.0751 15.4952 83.9543 14.6093 83.9543 13.4288C83.9543 12.2483 83.0761 11.363 81.9282 11.363C80.7563 11.363 79.877 12.2483 79.877 13.4288C79.877 14.6093 80.7568 15.4947 81.9288 15.4947L81.9277 15.4952ZM26.1386 0.0602056L24.2795 17.6452L21.1081 2.81944L11.1652 4.92068L14.335 19.7454L0 22.7736L2.53195 34.6158L27.7405 39.9402L33.5054 27.072L36.249 1.11699L26.1376 0.0596924L26.1386 0.0607189V0.0602056ZM18.173 25.5703C17.6533 26.0435 16.9661 25.9998 16.2368 25.7586C15.5091 25.5184 15.1855 24.6433 15.4613 23.5855C15.6667 22.8002 16.6338 22.6822 17.1176 22.674C17.3015 22.6709 17.4822 22.7079 17.6492 22.7828C17.9912 22.9368 18.5705 23.2653 18.6881 23.7662C18.8576 24.4888 18.6943 25.0955 18.1745 25.5687H18.1735V25.5697L18.173 25.5703ZM25.471 26.3863C25.0935 27.0382 24.1023 27.1244 23.127 26.6501C22.4696 26.3299 22.4748 25.5148 22.5467 25.018C22.5848 24.747 22.6947 24.4911 22.8651 24.2769C23.0998 23.9812 23.4916 23.5958 23.9446 23.584C24.6811 23.5645 25.3148 23.893 25.6728 24.4873C26.0323 25.0796 25.8526 25.733 25.4741 26.3863H25.471Z" fill="#8091A5"/>
</g>
<defs>
<clipPath id="clip0_48_61">
<rect width="148.905" height="40" fill="white"/>
</clipPath>
</defs>
</svg>
