<svg width="48" height="48" viewBox="0 0 48 48" fill="none" xmlns="http://www.w3.org/2000/svg">
<g clip-path="url(#clip0_1001_3125)">
<path d="M43 0H5C2.23858 0 0 2.23858 0 5V43C0 45.7614 2.23858 48 5 48H43C45.7614 48 48 45.7614 48 43V5C48 2.23858 45.7614 0 43 0Z" fill="#FFF0E3"/>
<path d="M24 39C32.28 39 39 32.28 39 24C39 15.72 32.28 9 24 9C15.72 9 9 15.72 9 24C9 32.28 15.72 39 24 39Z" fill="#2473D1"/>
<path d="M24.0001 14.3101C29.3501 14.3101 33.6901 18.6501 33.6901 24.0001C33.6901 29.3501 29.3501 33.6901 24.0001 33.6901C18.6501 33.6901 14.3101 29.3501 14.3101 24.0001C14.3101 18.6501 18.6501 14.3101 24.0001 14.3101ZM28.4601 26.2701C28.4601 22.6501 25.5301 19.7201 21.9101 19.7201C18.2901 19.7201 15.3601 22.6501 15.3601 26.2701C15.3601 29.8901 18.2901 32.8201 21.9101 32.8201C25.5301 32.8201 28.4601 29.8901 28.4601 26.2701V26.2701Z" fill="#8EBFF0"/>
<path d="M21.9101 19.7202C25.5301 19.7202 28.4601 22.6502 28.4601 26.2702C28.4601 29.8902 25.5301 32.8202 21.9101 32.8202C18.2901 32.8202 15.3601 29.8902 15.3601 26.2702C15.3601 22.6502 18.2901 19.7202 21.9101 19.7202ZM23.7901 27.7602C23.7901 25.6202 22.0501 23.8802 19.9101 23.8802C17.7701 23.8802 16.0301 25.6202 16.0301 27.7602C16.0301 29.9002 17.7701 31.6402 19.9101 31.6402C22.0501 31.6402 23.7901 29.9002 23.7901 27.7602Z" fill="#8EBFF0" stroke="#090B2B" stroke-miterlimit="10"/>
<path d="M24.0001 33.6901C29.3501 33.6901 33.6901 29.3501 33.6901 24.0001C33.6901 18.6501 29.3501 14.3101 24.0001 14.3101C18.6501 14.3101 14.3101 18.6501 14.3101 24.0001C14.3101 29.3501 18.6501 33.6901 24.0001 33.6901Z" stroke="#090B2B" stroke-miterlimit="10" stroke-linecap="round"/>
<path d="M21.9101 32.81C25.5301 32.81 28.4601 29.88 28.4601 26.26C28.4601 22.64 25.5301 19.71 21.9101 19.71C18.2901 19.71 15.3601 22.64 15.3601 26.26C15.3601 29.88 18.2901 32.81 21.9101 32.81Z" stroke="#090B2B" stroke-miterlimit="10" stroke-linecap="round"/>
<path d="M23.79 27.7599C23.79 29.8999 22.05 31.6399 19.91 31.6399C17.77 31.6399 16.03 29.8999 16.03 27.7599C16.03 25.6199 17.77 23.8799 19.91 23.8799C22.05 23.8799 23.79 25.6199 23.79 27.7599Z" stroke="#090B2B" stroke-miterlimit="10" stroke-linecap="round"/>
</g>
<defs>
<clipPath id="clip0_1001_3125">
<rect width="48" height="48" fill="white"/>
</clipPath>
</defs>
</svg>
