<?xml version="1.0" encoding="UTF-8" standalone="no"?>
<!DOCTYPE svg PUBLIC "-//W3C//DTD SVG 1.1//EN" "http://www.w3.org/Graphics/SVG/1.1/DTD/svg11.dtd">
<svg width="100%" height="100%" viewBox="0 0 516 516" version="1.1" xmlns="http://www.w3.org/2000/svg" xmlns:xlink="http://www.w3.org/1999/xlink" xml:space="preserve" xmlns:serif="http://www.serif.com/" style="fill-rule:evenodd;clip-rule:evenodd;stroke-linejoin:round;stroke-miterlimit:2;">
    <g>
        <g transform="matrix(1,0,0,1,-8582.56,-1579.86)">
            <g transform="matrix(1,0,0,1,8478.3,1528.34)">
                <circle cx="368.95" cy="309.256" r="68.281" style="fill:rgb(41,47,62);"/>
            </g>
            <g transform="matrix(1,0,0,1,8501.81,1498.9)">
                <circle cx="345.438" cy="338.696" r="190.25" style="fill:url(#_Radial1);"/>
            </g>
            <g transform="matrix(1.35469,0,0,1.35469,8372.33,1378.77)">
                <circle cx="345.438" cy="338.696" r="190.25" style="fill:url(#_Radial2);"/>
            </g>
            <g transform="matrix(1,0,0,1,8315.18,1578.63)">
                <circle cx="501.702" cy="71.203" r="5.008" style="fill:rgb(41,47,62);"/>
            </g>
            <g transform="matrix(1,0,0,1,8519.2,1688.89)">
                <circle cx="501.702" cy="71.203" r="5.008" style="fill:rgb(41,47,62);"/>
            </g>
            <g transform="matrix(1,0,0,1,8471.01,1905.96)">
                <circle cx="501.702" cy="71.203" r="5.008" style="fill:rgb(41,47,62);"/>
            </g>
            <g transform="matrix(1,0,0,1,8261.46,1935.32)">
                <circle cx="501.702" cy="71.203" r="5.008" style="fill:rgb(41,47,62);"/>
            </g>
            <g transform="matrix(1,0,0,1,8158.74,1734.07)">
                <circle cx="501.702" cy="71.203" r="5.008" style="fill:rgb(41,47,62);"/>
            </g>
            <g transform="matrix(1,0,0,1,8202.86,1543.4)">
                <circle cx="501.702" cy="71.203" r="5.008" style="fill:rgb(41,47,62);"/>
            </g>
            <g transform="matrix(1,0,0,1,8518.4,1582.7)">
                <circle cx="501.702" cy="71.203" r="5.008" style="fill:rgb(41,47,62);"/>
            </g>
            <g transform="matrix(1,0,0,1,8578.92,1866.48)">
                <circle cx="501.702" cy="71.203" r="5.008" style="fill:rgb(41,47,62);"/>
            </g>
            <g transform="matrix(1,0,0,1,8374.97,2017.02)">
                <circle cx="501.702" cy="71.203" r="5.008" style="fill:rgb(41,47,62);"/>
            </g>
            <g transform="matrix(1,0,0,1,8089.94,1837.22)">
                <circle cx="501.702" cy="71.203" r="5.008" style="fill:rgb(41,47,62);"/>
            </g>
        </g>
        <g transform="matrix(0.587961,0,0,0.587961,-4750.46,138.873)">
            <path d="M8517.89,139.129C8552.68,139.129 8580.92,167.369 8580.92,202.152C8580.92,236.935 8552.68,265.174 8517.89,265.174C8483.11,265.174 8454.87,236.935 8454.87,202.152C8454.87,167.369 8483.11,139.129 8517.89,139.129ZM8517.89,148.802C8488.45,148.802 8464.54,172.707 8464.54,202.152C8464.54,231.596 8488.45,255.502 8517.89,255.502C8547.34,255.502 8571.24,231.596 8571.24,202.152C8571.24,172.707 8547.34,148.802 8517.89,148.802Z" style="fill:rgb(247,250,252);"/>
        </g>
    </g>
    <defs>
        <radialGradient id="_Radial1" cx="0" cy="0" r="1" gradientUnits="userSpaceOnUse" gradientTransform="matrix(-125.017,-228.193,228.193,-125.017,345.438,328.881)"><stop offset="0" style="stop-color:white;stop-opacity:0.05"/><stop offset="0.6" style="stop-color:rgb(218,219,221);stop-opacity:0.22"/><stop offset="0.81" style="stop-color:rgb(131,135,143);stop-opacity:0.6"/><stop offset="1" style="stop-color:rgb(41,47,62);stop-opacity:1"/></radialGradient>
        <radialGradient id="_Radial2" cx="0" cy="0" r="1" gradientUnits="userSpaceOnUse" gradientTransform="matrix(-125.017,-228.193,228.193,-125.017,345.438,328.881)"><stop offset="0" style="stop-color:white;stop-opacity:0.02"/><stop offset="0.6" style="stop-color:rgb(218,219,221);stop-opacity:0.1"/><stop offset="0.81" style="stop-color:rgb(131,135,143);stop-opacity:0.27"/><stop offset="1" style="stop-color:rgb(41,47,62);stop-opacity:0.46"/></radialGradient>
    </defs>
</svg>
