<svg width="48" height="48" viewBox="0 0 48 48" fill="none" xmlns="http://www.w3.org/2000/svg">
<g clip-path="url(#clip0_1001_3133)">
<path d="M43 0H5C2.23858 0 0 2.23858 0 5V43C0 45.7614 2.23858 48 5 48H43C45.7614 48 48 45.7614 48 43V5C48 2.23858 45.7614 0 43 0Z" fill="#FFF0E3"/>
<path d="M24 38.92C32.28 38.92 39 32.22 39 23.96C39 15.7 32.28 9 24 9C15.72 9 9 15.7 9 23.96C9 32.22 15.72 38.92 24 38.92Z" fill="#EE6F57"/>
<path d="M31.44 18.1898V27.4898C31.44 28.1898 30.65 28.5998 30.07 28.1998L24 23.9498V18.1798C24 16.9798 24.97 16.0098 26.18 16.0098H29.26C30.46 16.0098 31.44 16.9798 31.44 18.1798V18.1898Z" fill="#FFBEBB"/>
<path d="M24 23.9601V29.7301C24 30.9301 23.03 31.9001 21.82 31.9001H18.73C17.53 31.9001 16.55 30.9301 16.55 29.7301V20.4301C16.55 19.7301 17.34 19.3201 17.92 19.7201L23.99 23.9701L24 23.9601Z" fill="#FFBEBB"/>
<path d="M24 23.9601V29.7301C24 30.9301 23.03 31.9001 21.82 31.9001H18.73C17.53 31.9001 16.55 30.9301 16.55 29.7301V20.4301C16.55 19.7301 17.34 19.3201 17.92 19.7201L23.99 23.9701L24 23.9601Z" stroke="#090B2B" stroke-miterlimit="10" stroke-linecap="round"/>
<path d="M24 23.9598L30.07 28.2098C30.65 28.6098 31.44 28.2098 31.44 27.4998V18.1998C31.44 16.9998 30.47 16.0298 29.26 16.0298H26.18C24.98 16.0298 24 16.9998 24 18.1998V23.9698V23.9598Z" stroke="#090B2B" stroke-miterlimit="10" stroke-linecap="round"/>
<path d="M26.4599 20.6602C26.2899 20.6602 26.1599 20.5302 26.1599 20.3602V18.7302C26.1599 18.5602 26.2899 18.4302 26.4599 18.4302C26.6299 18.4302 26.7599 18.5602 26.7599 18.7302V20.3602C26.7599 20.5302 26.6299 20.6602 26.4599 20.6602Z" fill="#090B2B"/>
<path d="M28.8701 20.6602C28.7001 20.6602 28.5701 20.5302 28.5701 20.3602V18.7302C28.5701 18.5602 28.7001 18.4302 28.8701 18.4302C29.0401 18.4302 29.1701 18.5602 29.1701 18.7302V20.3602C29.1701 20.5302 29.0401 20.6602 28.8701 20.6602Z" fill="#090B2B"/>
<path d="M28.8701 24.3599C28.7001 24.3599 28.5701 24.2299 28.5701 24.0599V22.4299C28.5701 22.2599 28.7001 22.1299 28.8701 22.1299C29.0401 22.1299 29.1701 22.2599 29.1701 22.4299V24.0599C29.1701 24.2299 29.0401 24.3599 28.8701 24.3599Z" fill="#090B2B"/>
<path d="M19.05 25.0899C18.88 25.0899 18.75 24.9599 18.75 24.7899V23.1599C18.75 22.9899 18.88 22.8599 19.05 22.8599C19.22 22.8599 19.35 22.9899 19.35 23.1599V24.7899C19.35 24.9599 19.22 25.0899 19.05 25.0899Z" fill="#090B2B"/>
<path d="M19.05 28.7398C18.88 28.7398 18.75 28.6098 18.75 28.4398V26.8098C18.75 26.6398 18.88 26.5098 19.05 26.5098C19.22 26.5098 19.35 26.6398 19.35 26.8098V28.4398C19.35 28.6098 19.22 28.7398 19.05 28.7398Z" fill="#090B2B"/>
<path d="M21.4599 26.8999C21.2899 26.8999 21.1599 26.7699 21.1599 26.5999V24.9699C21.1599 24.7999 21.2899 24.6699 21.4599 24.6699C21.6299 24.6699 21.7599 24.7999 21.7599 24.9699V26.5999C21.7599 26.7699 21.6299 26.8999 21.4599 26.8999Z" fill="#090B2B"/>
</g>
<defs>
<clipPath id="clip0_1001_3133">
<rect width="48" height="48" fill="white"/>
</clipPath>
</defs>
</svg>
