<?xml version="1.0" encoding="UTF-8" standalone="no"?>
<!DOCTYPE svg PUBLIC "-//W3C//DTD SVG 1.1//EN" "http://www.w3.org/Graphics/SVG/1.1/DTD/svg11.dtd">
<svg width="100%" height="100%" viewBox="0 0 274 197" version="1.1" xmlns="http://www.w3.org/2000/svg" xmlns:xlink="http://www.w3.org/1999/xlink" xml:space="preserve" xmlns:serif="http://www.serif.com/" style="fill-rule:evenodd;clip-rule:evenodd;stroke-linejoin:round;stroke-miterlimit:2;">
    <g transform="matrix(1,0,0,0.20592,-8420.36,126.188)">
        <path d="M8420.36,334.47L8420.36,330.74L8442.57,135.558L8430.41,135.558C8429,135.558 8427.86,137.112 8426.99,140.22C8426.11,143.328 8425.34,147.886 8424.65,153.895L8421.71,179.07L8421.07,179.07L8421.52,129.342L8452.81,129.342L8452.81,133.072L8430.6,328.254L8444.56,328.254C8445.96,328.254 8447.08,326.648 8447.92,323.437C8448.75,320.225 8449.51,315.615 8450.19,309.606L8452.94,284.742L8453.58,284.742L8453.13,334.47L8420.36,334.47Z" style="fill:rgb(41,47,62);fill-rule:nonzero;"/>
        <path d="M8472.01,339.132C8468.77,339.132 8465.95,335.869 8463.56,329.342C8461.17,322.815 8459.33,313.543 8458.03,301.525C8456.73,289.508 8456.08,275.418 8456.08,259.256C8456.08,243.095 8456.77,229.109 8458.16,217.298C8459.54,205.488 8461.44,196.371 8463.85,189.948C8466.26,183.525 8468.98,180.313 8472.01,180.313C8475.04,180.313 8477.75,183.473 8480.14,189.793C8482.53,196.112 8484.42,205.177 8485.8,216.988C8487.19,228.798 8487.88,242.888 8487.88,259.256C8487.88,275.625 8487.23,289.767 8485.93,301.681C8484.63,313.595 8482.8,322.815 8480.43,329.342C8478.06,335.869 8475.26,339.132 8472.01,339.132ZM8472.01,332.916C8473.51,332.916 8474.7,330.844 8475.6,326.7C8476.49,322.556 8477.14,315.2 8477.55,304.633C8477.95,294.066 8478.16,279.148 8478.16,259.878C8478.16,240.401 8477.95,225.379 8477.55,214.812C8477.14,204.245 8476.49,196.889 8475.6,192.745C8474.7,188.601 8473.51,186.529 8472.01,186.529C8470.52,186.529 8469.31,188.601 8468.4,192.745C8467.48,196.889 8466.82,204.245 8466.41,214.812C8466.01,225.379 8465.8,240.401 8465.8,259.878C8465.8,279.148 8466.01,294.066 8466.41,304.633C8466.82,315.2 8467.48,322.556 8468.4,326.7C8469.31,330.844 8470.52,332.916 8472.01,332.916Z" style="fill:rgb(41,47,62);fill-rule:nonzero;"/>
        <path d="M8499.66,339.132C8497.18,339.132 8495.1,335.713 8493.42,328.876C8491.74,322.038 8490.89,312.196 8490.89,299.35C8490.89,289.611 8491.92,280.65 8493.96,272.465C8496.01,264.281 8499.23,258.117 8503.63,253.973C8504.31,253.351 8505.08,252.678 8505.93,251.953C8506.78,251.227 8507.68,250.45 8508.62,249.622L8508.62,225.068C8508.62,210.979 8508.27,201.085 8507.56,195.387C8506.86,189.689 8505.76,186.84 8504.27,186.84C8503.24,186.84 8502.43,188.446 8501.84,191.657C8501.24,194.869 8500.85,200.412 8500.68,208.285L8500.56,211.704C8500.47,220.614 8500.02,227.14 8499.21,231.284C8498.4,235.428 8497.4,237.5 8496.2,237.5C8495.09,237.5 8494.18,235.843 8493.45,232.528C8492.73,229.212 8492.36,224.758 8492.36,219.163C8492.36,210.668 8492.97,203.52 8494.19,197.718C8495.4,191.916 8497.01,187.565 8499.02,184.664C8501.02,181.764 8503.2,180.313 8505.55,180.313C8509.34,180.313 8512.28,184.82 8514.35,193.833C8516.42,202.846 8517.45,217.506 8517.45,237.811L8517.45,306.498C8517.45,315.822 8518.35,320.484 8520.14,320.484L8521.55,320.484L8522.12,322.97C8521.31,327.943 8520.43,331.776 8519.47,334.47C8518.51,337.164 8517.15,338.51 8515.4,338.51C8513.53,338.51 8512.04,336.387 8510.96,332.139C8509.87,327.891 8509.15,322.245 8508.81,315.2C8507.53,321.831 8506.22,327.477 8504.88,332.139C8503.53,336.801 8501.79,339.132 8499.66,339.132ZM8503.56,320.173C8504.42,320.173 8505.22,319.189 8505.96,317.221C8506.71,315.252 8507.6,312.196 8508.62,308.052L8508.62,255.838C8508.19,256.252 8507.77,256.666 8507.34,257.081C8506.91,257.495 8506.42,257.91 8505.87,258.324C8503.91,260.81 8502.34,265.006 8501.16,270.911C8499.99,276.817 8499.4,284.742 8499.4,294.688C8499.4,303.183 8499.81,309.554 8500.62,313.802C8501.43,318.049 8502.41,320.173 8503.56,320.173Z" style="fill:rgb(41,47,62);fill-rule:nonzero;"/>
        <path d="M8523.34,334.47L8523.34,331.362L8524.24,330.119C8525.73,328.047 8526.48,322.97 8526.48,314.89L8526.48,217.609C8526.48,213.051 8526.33,209.684 8526.03,207.508C8525.73,205.333 8525.15,203.83 8524.3,203.002L8523.34,201.758L8523.34,198.65L8534.28,180.624L8534.92,183.732L8535.44,202.38C8536.93,195.957 8538.61,190.673 8540.49,186.529C8542.37,182.385 8544.23,180.313 8546.06,180.313C8548.88,180.313 8551.04,184.043 8552.56,191.502C8554.07,198.961 8554.83,210.357 8554.83,225.69L8554.83,315.2C8554.83,323.281 8555.64,328.358 8557.26,330.43L8557.84,331.362L8557.84,334.47L8542.73,334.47L8542.73,331.362L8543.56,330.119C8545.06,327.84 8545.8,322.763 8545.8,314.89L8545.8,215.744C8545.8,202.484 8544.44,195.853 8541.71,195.853C8539.83,195.853 8537.78,200.412 8535.56,209.528L8535.56,315.2C8535.56,323.281 8536.31,328.358 8537.8,330.43L8538.38,331.362L8538.38,334.47L8523.34,334.47Z" style="fill:rgb(41,47,62);fill-rule:nonzero;"/>
        <path d="M8596.43,340.064C8592.29,340.064 8588.55,335.972 8585.2,327.788C8581.85,319.603 8579.19,307.43 8577.23,291.269C8575.26,275.107 8574.28,255.32 8574.28,231.906C8574.28,214.087 8574.88,198.443 8576.08,184.975C8577.27,171.507 8578.9,160.215 8580.97,151.098C8583.04,141.981 8585.43,135.144 8588.14,130.585C8590.85,126.027 8593.72,123.748 8596.75,123.748C8599.18,123.748 8601.42,125.094 8603.47,127.788C8605.52,130.482 8607.44,134.211 8609.23,138.977L8609.48,177.205L8608.84,177.205L8605.64,152.341C8605.22,148.404 8604.75,144.83 8604.24,141.619C8603.72,138.407 8603.08,135.972 8602.32,134.315C8601.68,132.864 8601.05,131.777 8600.43,131.051C8599.81,130.326 8599.03,129.964 8598.09,129.964C8595.62,129.964 8593.37,133.175 8591.34,139.598C8589.31,146.022 8587.69,156.641 8586.48,171.455C8585.26,186.27 8584.65,206.524 8584.65,232.217C8584.65,257.702 8585.23,277.853 8586.38,292.667C8587.53,307.482 8589.1,318.049 8591.08,324.369C8593.07,330.689 8595.3,333.848 8597.77,333.848C8599.14,333.848 8600.23,333.382 8601.04,332.45C8601.85,331.517 8602.66,330.119 8603.47,328.254C8604.28,326.596 8604.9,324.162 8605.32,320.95C8605.75,317.739 8606.14,314.268 8606.48,310.538L8609.29,280.08L8609.93,280.08L8609.74,324.524C8607.95,329.083 8605.94,332.812 8603.72,335.713C8601.51,338.614 8599.07,340.064 8596.43,340.064Z" style="fill:rgb(41,47,62);fill-rule:nonzero;"/>
        <path d="M8612.88,334.47L8612.88,331.362L8614.16,329.186C8615.61,326.907 8616.33,321.002 8616.33,311.471L8616.33,152.341C8616.33,148.197 8616.24,144.882 8616.04,142.396C8615.85,139.909 8615.35,137.837 8614.54,136.18L8612.88,132.45L8612.88,129.342L8625.23,129.342L8637.07,279.769L8648.2,129.342L8660.81,129.342L8660.81,132.45L8659.79,134.315C8658.98,135.765 8658.42,137.785 8658.12,140.375C8657.83,142.965 8657.68,146.332 8657.68,150.476L8657.68,313.025C8657.68,317.169 8657.78,320.38 8658,322.66C8658.21,324.939 8658.72,326.907 8659.53,328.565L8660.81,331.362L8660.81,334.47L8644.88,334.47L8644.88,331.362L8646.22,328.565C8647.03,326.907 8647.54,324.939 8647.76,322.66C8647.97,320.38 8648.08,317.169 8648.08,313.025L8648.08,243.095L8648.2,154.206L8634.83,334.47L8631.63,334.47L8617.68,156.382L8617.87,233.771L8617.87,312.092C8617.87,316.651 8618.01,320.329 8618.28,323.126C8618.56,325.923 8619.1,327.943 8619.92,329.186L8621.32,331.362L8621.32,334.47L8612.88,334.47Z" style="fill:rgb(41,47,62);fill-rule:nonzero;"/>
        <path d="M8677.39,340.064C8675.04,340.064 8672.65,338.666 8670.22,335.869C8667.79,333.071 8665.76,329.394 8664.14,324.835L8664.46,282.566L8665.1,282.566L8667.08,302.768C8667.68,308.57 8668.32,313.698 8669,318.153C8669.69,322.608 8670.62,326.078 8671.82,328.565C8672.67,330.637 8673.5,332.035 8674.28,332.761C8675.07,333.486 8675.96,333.848 8676.94,333.848C8679.54,333.848 8681.6,330.43 8683.12,323.592C8684.63,316.754 8685.39,307.948 8685.39,297.174C8685.39,287.021 8684.88,279.096 8683.85,273.398C8682.83,267.7 8681.18,262.157 8678.92,256.77L8676.3,251.176C8672.63,243.302 8669.76,234.237 8667.69,223.981C8665.62,213.724 8664.59,200.101 8664.59,183.11C8664.59,170.886 8665.24,160.318 8666.54,151.409C8667.84,142.499 8669.66,135.662 8671.98,130.896C8674.31,126.13 8677.02,123.748 8680.14,123.748C8682.4,123.748 8684.55,125.198 8686.57,128.099C8688.6,131 8690.36,134.936 8691.85,139.909L8691.47,177.205L8690.83,177.205L8688.2,153.895C8687.48,146.643 8686.75,141.515 8686.03,138.511C8685.3,135.506 8684.47,133.382 8683.53,132.139C8682.98,131.31 8682.47,130.741 8682,130.43C8681.53,130.119 8680.93,129.964 8680.2,129.964C8678.03,129.964 8676.19,133.02 8674.7,139.132C8673.21,145.245 8672.46,153.481 8672.46,163.841C8672.46,174.408 8673.04,182.851 8674.19,189.171C8675.34,195.491 8677.02,201.137 8679.24,206.11L8682.19,212.326C8686.28,221.028 8689.23,230.3 8691.02,240.142C8692.81,249.984 8693.71,262.675 8693.71,278.215C8693.71,296.449 8692.29,311.315 8689.45,322.815C8686.61,334.315 8682.59,340.064 8677.39,340.064Z" style="fill:rgb(41,47,62);fill-rule:nonzero;"/>
    </g>
    <g transform="matrix(1,0,0,1,-8380.93,-139.129)">
        <path d="M8517.89,139.129C8552.68,139.129 8580.92,167.369 8580.92,202.152C8580.92,236.935 8552.68,265.174 8517.89,265.174C8483.11,265.174 8454.87,236.935 8454.87,202.152C8454.87,167.369 8483.11,139.129 8517.89,139.129ZM8517.89,148.802C8488.45,148.802 8464.54,172.707 8464.54,202.152C8464.54,231.596 8488.45,255.502 8517.89,255.502C8547.34,255.502 8571.24,231.596 8571.24,202.152C8571.24,172.707 8547.34,148.802 8517.89,148.802Z" style="fill:rgb(41,47,62);"/>
    </g>
</svg>
