<?xml version="1.0" encoding="UTF-8" standalone="no"?>
<!DOCTYPE svg PUBLIC "-//W3C//DTD SVG 1.1//EN" "http://www.w3.org/Graphics/SVG/1.1/DTD/svg11.dtd">
<svg width="100%" height="100%" viewBox="0 0 297 75" version="1.1" xmlns="http://www.w3.org/2000/svg" xmlns:xlink="http://www.w3.org/1999/xlink" xml:space="preserve" xmlns:serif="http://www.serif.com/" style="fill-rule:evenodd;clip-rule:evenodd;stroke-linejoin:round;stroke-miterlimit:2;">
    <g transform="matrix(1,0,0,8.38441,-137.055,-57.087)">
        <g transform="matrix(0.587961,0,0,0.0701255,-4834.08,-2.9478)">
            <path d="M8517.89,139.129C8552.68,139.129 8580.92,167.369 8580.92,202.152C8580.92,236.935 8552.68,265.174 8517.89,265.174C8483.11,265.174 8454.87,236.935 8454.87,202.152C8454.87,167.369 8483.11,139.129 8517.89,139.129ZM8517.89,148.802C8488.45,148.802 8464.54,172.707 8464.54,202.152C8464.54,231.596 8488.45,255.502 8517.89,255.502C8547.34,255.502 8571.24,231.596 8571.24,202.152C8571.24,172.707 8547.34,148.802 8517.89,148.802Z" style="fill:rgb(41,47,62);"/>
        </g>
        <g transform="matrix(0.511028,0,0,0.0245599,-3975.51,6.3962)">
            <path d="M8227.57,280.002L8227.57,277.205L8260.16,130.818L8242.31,130.818C8240.25,130.818 8238.57,131.984 8237.29,134.315C8236,136.646 8234.86,140.065 8233.86,144.571L8229.54,163.452L8228.6,163.452L8229.26,126.156L8275.19,126.156L8275.19,128.953L8242.59,275.34L8263.07,275.34C8265.14,275.34 8266.78,274.136 8268,271.727C8269.22,269.318 8270.33,265.861 8271.34,261.354L8275.38,242.706L8276.31,242.706L8275.66,280.002L8227.57,280.002Z" style="fill:rgb(41,47,62);fill-rule:nonzero;"/>
            <path d="M8303.36,283.499C8298.61,283.499 8294.47,281.051 8290.97,276.156C8287.46,271.261 8284.75,264.307 8282.84,255.294C8280.93,246.28 8279.98,235.713 8279.98,223.592C8279.98,211.471 8281,200.981 8283.03,192.124C8285.07,183.266 8287.85,176.428 8291.39,171.611C8294.93,166.793 8298.92,164.385 8303.36,164.385C8307.81,164.385 8311.79,166.754 8315.29,171.494C8318.8,176.234 8321.57,183.033 8323.61,191.89C8325.64,200.748 8326.66,211.315 8326.66,223.592C8326.66,235.869 8325.7,246.475 8323.8,255.41C8321.89,264.346 8319.19,271.261 8315.72,276.156C8312.24,281.051 8308.12,283.499 8303.36,283.499ZM8303.36,278.837C8305.56,278.837 8307.31,277.283 8308.62,274.175C8309.94,271.067 8310.9,265.55 8311.49,257.625C8312.09,249.699 8312.38,238.51 8312.38,224.058C8312.38,209.451 8312.09,198.184 8311.49,190.259C8310.9,182.333 8309.94,176.817 8308.62,173.709C8307.31,170.601 8305.56,169.047 8303.36,169.047C8301.17,169.047 8299.41,170.601 8298.06,173.709C8296.71,176.817 8295.74,182.333 8295.15,190.259C8294.55,198.184 8294.25,209.451 8294.25,224.058C8294.25,238.51 8294.55,249.699 8295.15,257.625C8295.74,265.55 8296.71,271.067 8298.06,274.175C8299.41,277.283 8301.17,278.837 8303.36,278.837Z" style="fill:rgb(41,47,62);fill-rule:nonzero;"/>
            <path d="M8343.94,283.499C8340.31,283.499 8337.26,280.935 8334.78,275.806C8332.31,270.678 8331.07,263.297 8331.07,253.662C8331.07,246.358 8332.58,239.637 8335.58,233.499C8338.59,227.36 8343.32,222.737 8349.77,219.629C8350.77,219.163 8351.9,218.658 8353.15,218.114C8354.4,217.57 8355.72,216.988 8357.09,216.366L8357.09,197.951C8357.09,187.384 8356.58,179.963 8355.54,175.69C8354.51,171.416 8352.9,169.28 8350.7,169.28C8349.2,169.28 8348.01,170.484 8347.14,172.893C8346.26,175.301 8345.7,179.458 8345.44,185.364L8345.26,187.928C8345.13,194.61 8344.48,199.505 8343.28,202.613C8342.09,205.721 8340.62,207.275 8338.87,207.275C8337.24,207.275 8335.9,206.032 8334.83,203.545C8333.77,201.059 8333.23,197.718 8333.23,193.522C8333.23,187.151 8334.13,181.789 8335.91,177.438C8337.7,173.087 8340.06,169.824 8343,167.648C8345.95,165.472 8349.14,164.385 8352.58,164.385C8358.16,164.385 8362.46,167.765 8365.5,174.524C8368.54,181.284 8370.05,192.279 8370.05,207.508L8370.05,259.023C8370.05,266.016 8371.37,269.513 8374,269.513L8376.07,269.513L8376.91,271.378C8375.72,275.107 8374.42,277.982 8373.01,280.002C8371.6,282.022 8369.62,283.033 8367.05,283.033C8364.29,283.033 8362.12,281.44 8360.52,278.254C8358.92,275.068 8357.88,270.834 8357.37,265.55C8355.5,270.523 8353.57,274.757 8351.6,278.254C8349.62,281.75 8347.07,283.499 8343.94,283.499ZM8349.67,269.28C8350.92,269.28 8352.1,268.541 8353.19,267.065C8354.29,265.589 8355.59,263.297 8357.09,260.189L8357.09,221.028C8356.47,221.339 8355.84,221.65 8355.21,221.96C8354.59,222.271 8353.87,222.582 8353.05,222.893C8350.17,224.758 8347.87,227.904 8346.15,232.333C8344.43,236.762 8343.57,242.706 8343.57,250.165C8343.57,256.537 8344.16,261.315 8345.35,264.501C8346.54,267.687 8347.98,269.28 8349.67,269.28Z" style="fill:rgb(41,47,62);fill-rule:nonzero;"/>
            <path d="M8378.7,280.002L8378.7,277.671L8380.01,276.739C8382.2,275.185 8383.3,271.378 8383.3,265.317L8383.3,192.357C8383.3,188.938 8383.08,186.413 8382.64,184.781C8382.2,183.149 8381.36,182.023 8380.1,181.401L8378.7,180.469L8378.7,178.138L8394.76,164.618L8395.7,166.949L8396.45,180.935C8398.64,176.117 8401.11,172.155 8403.87,169.047C8406.62,165.939 8409.35,164.385 8412.04,164.385C8416.17,164.385 8419.35,167.182 8421.57,172.776C8423.8,178.371 8424.91,186.918 8424.91,198.417L8424.91,265.55C8424.91,271.611 8426.1,275.418 8428.48,276.972L8429.32,277.671L8429.32,280.002L8407.16,280.002L8407.16,277.671L8408.38,276.739C8410.57,275.029 8411.67,271.222 8411.67,265.317L8411.67,190.958C8411.67,181.012 8409.66,176.04 8405.65,176.04C8402.9,176.04 8399.89,179.458 8396.64,186.296L8396.64,265.55C8396.64,271.611 8397.73,275.418 8399.92,276.972L8400.77,277.671L8400.77,280.002L8378.7,280.002Z" style="fill:rgb(41,47,62);fill-rule:nonzero;"/>
            <path d="M8485.96,284.198C8479.89,284.198 8474.39,281.129 8469.48,274.991C8464.56,268.852 8460.66,259.723 8457.78,247.601C8454.9,235.48 8453.46,220.639 8453.46,203.079C8453.46,189.715 8454.34,177.982 8456.09,167.881C8457.85,157.78 8460.24,149.311 8463.28,142.473C8466.32,135.636 8469.82,130.507 8473.8,127.089C8477.77,123.67 8481.99,121.96 8486.43,121.96C8490,121.96 8493.29,122.971 8496.29,124.991C8499.3,127.011 8502.12,129.808 8504.75,133.382L8505.12,162.054L8504.18,162.054L8499.49,143.406C8498.86,140.453 8498.17,137.772 8497.42,135.364C8496.67,132.955 8495.73,131.129 8494.6,129.886C8493.66,128.798 8492.74,127.982 8491.83,127.438C8490.92,126.894 8489.78,126.622 8488.4,126.622C8484.77,126.622 8481.47,129.031 8478.5,133.849C8475.52,138.666 8473.14,146.63 8471.36,157.741C8469.57,168.852 8468.68,184.043 8468.68,203.312C8468.68,222.427 8469.52,237.539 8471.22,248.65C8472.91,259.761 8475.21,267.687 8478.12,272.426C8481.03,277.166 8484.3,279.536 8487.93,279.536C8489.94,279.536 8491.53,279.186 8492.73,278.487C8493.92,277.788 8495.1,276.739 8496.29,275.34C8497.48,274.097 8498.39,272.271 8499.02,269.862C8499.64,267.454 8500.21,264.851 8500.71,262.054L8504.84,239.21L8505.78,239.21L8505.5,272.543C8502.87,275.962 8499.93,278.759 8496.67,280.935C8493.41,283.11 8489.84,284.198 8485.96,284.198Z" style="fill:rgb(41,47,62);fill-rule:nonzero;"/>
            <path d="M8510.1,280.002L8510.1,277.671L8511.98,276.04C8514.11,274.33 8515.17,269.901 8515.17,262.753L8515.17,143.406C8515.17,140.298 8515.03,137.811 8514.75,135.946C8514.47,134.082 8513.73,132.528 8512.54,131.284L8510.1,128.487L8510.1,126.156L8528.23,126.156L8545.61,238.977L8561.95,126.156L8580.45,126.156L8580.45,128.487L8578.95,129.886C8577.76,130.974 8576.95,132.489 8576.51,134.431C8576.07,136.374 8575.85,138.899 8575.85,142.007L8575.85,263.918C8575.85,267.026 8576.01,269.435 8576.32,271.144C8576.63,272.854 8577.39,274.33 8578.58,275.573L8580.45,277.671L8580.45,280.002L8557.07,280.002L8557.07,277.671L8559.04,275.573C8560.23,274.33 8560.98,272.854 8561.29,271.144C8561.61,269.435 8561.76,267.026 8561.76,263.918L8561.76,211.471L8561.95,144.804L8542.32,280.002L8537.62,280.002L8517.15,146.436L8517.43,204.478L8517.43,263.219C8517.43,266.638 8517.63,269.396 8518.04,271.494C8518.45,273.592 8519.24,275.107 8520.43,276.04L8522.5,277.671L8522.5,280.002L8510.1,280.002Z" style="fill:rgb(41,47,62);fill-rule:nonzero;"/>
            <path d="M8604.78,284.198C8601.34,284.198 8597.83,283.149 8594.26,281.051C8590.69,278.953 8587.72,276.195 8585.34,272.776L8585.81,241.075L8586.75,241.075L8589.66,256.226C8590.54,260.577 8591.48,264.423 8592.48,267.764C8593.48,271.106 8594.86,273.709 8596.61,275.573C8597.86,277.127 8599.07,278.176 8600.23,278.72C8601.38,279.264 8602.68,279.536 8604.12,279.536C8607.94,279.536 8610.97,276.972 8613.19,271.844C8615.41,266.716 8616.52,260.111 8616.52,252.03C8616.52,244.416 8615.77,238.472 8614.27,234.198C8612.76,229.925 8610.35,225.768 8607.04,221.727L8603.18,217.531C8597.8,211.626 8593.59,204.827 8590.55,197.135C8587.51,189.443 8586,179.225 8586,166.483C8586,157.314 8586.95,149.389 8588.86,142.706C8590.77,136.024 8593.43,130.896 8596.84,127.322C8600.26,123.748 8604.25,121.96 8608.82,121.96C8612.14,121.96 8615.29,123.048 8618.26,125.224C8621.24,127.399 8623.82,130.352 8626.01,134.082L8625.45,162.054L8624.51,162.054L8620.66,144.571C8619.59,139.132 8618.53,135.286 8617.46,133.033C8616.4,130.779 8615.18,129.187 8613.8,128.254C8612.98,127.633 8612.23,127.205 8611.54,126.972C8610.85,126.739 8609.98,126.622 8608.91,126.622C8605.72,126.622 8603.03,128.915 8600.84,133.499C8598.65,138.083 8597.55,144.26 8597.55,152.03C8597.55,159.956 8598.39,166.288 8600.09,171.028C8601.78,175.768 8604.25,180.002 8607.51,183.732L8611.83,188.394C8617.84,194.921 8622.16,201.875 8624.79,209.256C8627.42,216.638 8628.73,226.156 8628.73,237.811C8628.73,251.486 8626.65,262.636 8622.49,271.261C8618.32,279.886 8612.42,284.198 8604.78,284.198Z" style="fill:rgb(41,47,62);fill-rule:nonzero;"/>
        </g>
    </g>
</svg>
